<svg height="512" viewBox="0 0 64 64" width="512" xmlns="http://www.w3.org/2000/svg"><g id="Artificial_Intelligence" data-name="Artificial Intelligence"><path d="m61 30v10l-8 7v7l-5 7h-10l-6-5v-48l4-5h7l7 4v4l4.85 4.15 2.15 1.85v10z" fill="#ffa733"/><path d="m32 8v48l-6 5h-10l-5-7v-7l-8-7v-10l4-3v-10l2.15-1.85 4.85-4.15v-4l7-4h7z" fill="#ff9811"/><g fill="#ff6243"><circle cx="44" cy="45" r="2"/><path d="m48.41 24.41a1.955 1.955 0 0 1 -1.41.59 2 2 0 1 1 2-2 1.955 1.955 0 0 1 -.59 1.41z"/><circle cx="43" cy="14" r="2"/></g><path d="m32 27a5 5 0 0 1 0 10z" fill="#ffde55"/><circle cx="20" cy="45" fill="#ff6243" r="2"/><circle cx="21" cy="14" fill="#ff6243" r="2"/><path d="m29.53 40.65a8.372 8.372 0 0 1 -1.9-.79l-1.99 1.33-2.83-2.83 1.33-1.99a8.372 8.372 0 0 1 -.79-1.9l-2.35-.47v-4l2.35-.47a8.372 8.372 0 0 1 .79-1.9l-1.33-1.99 2.83-2.83 1.99 1.33a8.372 8.372 0 0 1 1.9-.79l.47-2.35h2v6a5 5 0 0 0 0 10v6h-2z" fill="#ff5023"/><path d="m17 21a2 2 0 0 1 0 4 2.015 2.015 0 0 1 -2-2 2.006 2.006 0 0 1 2-2z" fill="#ff6243"/><path d="m34.47 23.35a8.372 8.372 0 0 1 1.9.79l1.99-1.33 2.83 2.83-1.33 1.99a8.372 8.372 0 0 1 .79 1.9l2.35.47v4l-2.35.47a8.372 8.372 0 0 1 -.79 1.9l1.33 1.99-2.83 2.83-1.99-1.33a8.372 8.372 0 0 1 -1.9.79l-.47 2.35h-2v-6a5 5 0 0 0 0-10v-6h2z" fill="#ff6243"/><path d="m32 27v10a5 5 0 0 1 0-10z" fill="#ffd422"/><path d="m27 15h2v-6a1 1 0 0 0 -.293-.707l-2-2-1.414 1.414 1.707 1.707z"/><path d="m12.293 34.293a1 1 0 0 0 -.293.707v4h2v-3.586l1.707-1.707-1.414-1.414z"/><path d="m61.6 29.2-3.6-2.7v-9.5a1 1 0 0 0 -.349-.759l-6.651-5.701v-3.54a1 1 0 0 0 -.5-.868l-7-4a.993.993 0 0 0 -.5-.132h-7a1 1 0 0 0 -.781.375l-3.219 4.025-3.219-4.025a1 1 0 0 0 -.781-.375h-7a.993.993 0 0 0 -.5.132l-7 4a1 1 0 0 0 -.5.868v3.54l-6.651 5.7a1 1 0 0 0 -.349.76v9.5l-3.6 2.7a1 1 0 0 0 -.4.8v10a1 1 0 0 0 .341.752l7.659 6.702v6.546a1 1 0 0 0 .186.581l5 7a1 1 0 0 0 .814.419h10a1 1 0 0 0 .64-.232l5.36-4.468 5.36 4.466a1 1 0 0 0 .64.234h10a1 1 0 0 0 .814-.419l5-7a1 1 0 0 0 .186-.581v-6.546l7.659-6.7a1 1 0 0 0 .341-.754v-10a1 1 0 0 0 -.4-.8zm-1.6 10.346-6.955 6.085-1.338-1.338a1 1 0 0 0 -.707-.293h-4.184a3 3 0 1 0 0 2h3.77l1.414 1.414v6.266l-4.515 6.32h-4.485v-4.586l1.707-1.707-1.414-1.414-2 2a1 1 0 0 0 -.293.707v5h-2.638l-4.751-3.959 2.989-2.241a1 1 0 0 0 .4-.8v-6h-2v5.5l-2 1.5v-8h-2v8l-2-1.5v-5.5h-2v6a1 1 0 0 0 .4.8l2.989 2.241-4.751 3.959h-2.638v-5a1 1 0 0 0 -.293-.707l-2-2-1.414 1.414 1.707 1.707v4.586h-4.485l-4.515-6.32v-6.266l1.414-1.414h3.77a3 3 0 1 0 0-2h-4.184a1 1 0 0 0 -.707.293l-1.338 1.338-6.955-6.085v-9.046l3.333-2.5h5.667a1 1 0 0 0 .707-.293l2.008-2.007a2.951 2.951 0 0 0 1.285.3 3 3 0 1 0 -3-3 2.951 2.951 0 0 0 .3 1.285l-1.714 1.715h-4.586v-8.54l1.1-.944 1.9 1.9v3.584h2v-4a1 1 0 0 0 -.293-.707l-2.082-2.083 3.323-2.848 2.345 2.345a1 1 0 0 0 .707.293h1.184a3 3 0 1 0 0-2h-.77l-2.414-2.414v-3.006l6.266-3.58h6.254l3.48 4.35v9.65h2v-9.65l3.48-4.35h6.254l6.266 3.58v3.006l-2.414 2.414h-.77a3 3 0 1 0 0 2h1.184a1 1 0 0 0 .707-.293l2.345-2.345 3.323 2.848-2.082 2.083a1 1 0 0 0 -.293.707v4h2v-3.586l1.9-1.9 1.1.944v8.542h-4.586l-1.714-1.715a2.951 2.951 0 0 0 .3-1.285 3 3 0 1 0 -3 3 2.951 2.951 0 0 0 1.285-.3l2.008 2.008a1 1 0 0 0 .707.292h5.667l3.333 2.5zm-15 5.454a1 1 0 1 1 -1-1 1 1 0 0 1 1 1zm-26 0a1 1 0 1 1 1 1 1 1 0 0 1 -1-1zm-3-22a1 1 0 1 1 1 1 1 1 0 0 1 -1-1zm4-9a1 1 0 1 1 1 1 1 1 0 0 1 -1-1zm24 0a1 1 0 1 1 -1-1 1 1 0 0 1 1 1zm3 10a1 1 0 1 1 1-1 1 1 0 0 1 -1 1z"/><path d="m37 9.414 1.707-1.707-1.414-1.414-2 2a1 1 0 0 0 -.293.707v6h2z"/><path d="m49.707 32.293-1.414 1.414 1.707 1.707v3.586h2v-4a1 1 0 0 0 -.293-.707z"/><path d="m54 32h2v4h-2z"/><path d="m46 50h2v2h-2z"/><path d="m16 50h2v2h-2z"/><path d="m32 26a6 6 0 1 0 6 6 6.006 6.006 0 0 0 -6-6zm0 10a4 4 0 1 1 4-4 4 4 0 0 1 -4 4z"/><path d="m43.2 29.02-1.774-.355a9.99 9.99 0 0 0 -.4-.971l1-1.5a1 1 0 0 0 -.125-1.262l-2.83-2.832a1 1 0 0 0 -1.262-.125l-1.5 1a9.99 9.99 0 0 0 -.971-.4l-.358-1.775a1 1 0 0 0 -.98-.8h-4a1 1 0 0 0 -.98.8l-.355 1.774a9.99 9.99 0 0 0 -.971.4l-1.5-1a1 1 0 0 0 -1.262.125l-2.832 2.83a1 1 0 0 0 -.125 1.262l1 1.5a9.99 9.99 0 0 0 -.4.971l-1.775.358a1 1 0 0 0 -.8.98v4a1 1 0 0 0 .8.98l1.774.355a9.99 9.99 0 0 0 .4.971l-1 1.5a1 1 0 0 0 .125 1.262l2.83 2.832a1 1 0 0 0 1.262.125l1.5-1a9.99 9.99 0 0 0 .971.4l.358 1.775a1 1 0 0 0 .98.8h4a1 1 0 0 0 .98-.8l.355-1.774a9.99 9.99 0 0 0 .971-.4l1.5 1a1 1 0 0 0 1.262-.125l2.832-2.83a1 1 0 0 0 .125-1.262l-1-1.5a9.99 9.99 0 0 0 .4-.971l1.775-.358a1 1 0 0 0 .8-.98v-4a1 1 0 0 0 -.8-.98zm-1.2 4.16-1.548.31a1 1 0 0 0 -.765.706 8 8 0 0 1 -.7 1.689 1 1 0 0 0 .041 1.041l.874 1.31-1.67 1.67-1.31-.874a1 1 0 0 0 -1.041-.041 8 8 0 0 1 -1.689.7 1 1 0 0 0 -.706.765l-.306 1.544h-2.36l-.31-1.548a1 1 0 0 0 -.706-.765 8 8 0 0 1 -1.689-.7 1 1 0 0 0 -1.041.041l-1.31.874-1.67-1.67.874-1.31a1 1 0 0 0 .041-1.041 8 8 0 0 1 -.7-1.689 1 1 0 0 0 -.765-.706l-1.544-.306v-2.36l1.548-.31a1 1 0 0 0 .765-.706 8 8 0 0 1 .7-1.689 1 1 0 0 0 -.041-1.041l-.874-1.31 1.67-1.67 1.31.874a1 1 0 0 0 1.041.041 8 8 0 0 1 1.689-.7 1 1 0 0 0 .706-.765l.306-1.544h2.36l.31 1.548a1 1 0 0 0 .706.765 8 8 0 0 1 1.689.7 1 1 0 0 0 1.041-.041l1.31-.874 1.67 1.67-.874 1.31a1 1 0 0 0 -.041 1.041 8 8 0 0 1 .7 1.689 1 1 0 0 0 .765.706l1.544.306z"/></g></svg>