<svg id="Layer_1" enable-background="new 0 0 256 256" height="512" viewBox="0 0 256 256" width="512" xmlns="http://www.w3.org/2000/svg"><g><g><path d="m71.504 140.815c.592 1.652 1.262 3.241 1.994 4.815l-14.802 14.802 29.105 29.105 14.802-14.802c1.574.732 3.179 1.402 4.814 1.994v20.94h41.149v-20.94c1.636-.592 3.241-1.262 4.814-1.994l14.802 14.802 29.105-29.105-14.802-14.802c.732-1.574 1.402-3.163 1.994-4.815h20.941v-41.149h-20.94c-.592-1.636-1.262-3.241-1.994-4.815l14.802-14.802-29.105-29.105-14.802 14.817c-1.574-.732-3.179-1.418-4.814-2.01v-20.924h-41.149v20.925c-1.636.592-3.241 1.278-4.814 2.01l-14.802-14.817-29.105 29.105 14.802 14.802c-.732 1.574-1.402 3.179-1.994 4.815h-20.926v41.149h20.925z" fill="#9e9e9e"/><g fill="#707070"><path d="m82.927 145.629c-.732-1.574-1.402-3.163-1.994-4.815h-9.428c.592 1.652 1.262 3.241 1.994 4.815l-14.802 14.802 29.105 29.105 4.714-4.714-24.391-24.39z"/><path d="m50.579 99.666h9.428v41.148h-9.428z"/><path d="m82.927 94.851-14.802-14.801 24.388-24.388-4.712-4.717-29.104 29.105 14.802 14.802c-.732 1.574-1.402 3.178-1.994 4.815h9.428c.592-1.637 1.262-3.242 1.994-4.816z"/><path d="m107.418 42.827h9.428v20.925h-9.428z"/><path d="m107.418 176.728h9.428v20.94h-9.428z"/></g><g><circle cx="158.241" cy="116.812" fill="#f8af23" r="12.939"/><path d="m150.636 147.225-30.264-15.882v-29.075l30.264-15.882z" fill="#63bce7"/><path d="m150.636 86.386h7.605v60.839h-7.605z" fill="#f46275"/><path d="m94.919 102.268h25.453v29.088h-25.453z" fill="#f8af23"/><path d="m84.82 109.53h10.099v14.55h-10.099z" fill="#f46275"/><path d="m102.032 131.356h11.227v22.754h-11.227z" fill="#63bce7"/></g><path d="m230.849 53.653c-7.79-20.729-27.905-34.655-50.056-34.655h-89.543l5.47-5.47c1.953-1.953 1.953-5.119 0-7.071s-5.118-1.952-7.071 0l-14.006 14.005c-1.953 1.953-1.953 5.119 0 7.071l14.005 14.005c.977.976 2.256 1.464 3.536 1.464s2.559-.488 3.536-1.464c1.953-1.953 1.953-5.119 0-7.071l-5.47-5.47h89.543c18.008 0 34.362 11.322 40.694 28.173.754 2.006 2.658 3.243 4.682 3.243.584 0 1.179-.104 1.758-.321 2.585-.971 3.893-3.854 2.922-6.439z" fill="#63bce7"/><path d="m64.11 25.008c-.902-2.61-3.751-3.995-6.358-3.094-21.534 7.436-36.002 27.747-36.002 50.541v80.76l-5.47-5.47c-1.953-1.952-5.118-1.952-7.071 0-1.953 1.953-1.953 5.119 0 7.071l14.005 14.005c.977.976 2.256 1.464 3.536 1.464s2.559-.488 3.536-1.464l14.005-14.005c1.953-1.953 1.953-5.119 0-7.071s-5.118-1.952-7.071 0l-5.47 5.47v-80.76c0-18.532 11.761-35.044 29.266-41.089 2.61-.901 3.996-3.748 3.094-6.358z" fill="#f46275"/><path d="m180.357 212.962-14.005-14.005c-1.953-1.952-5.118-1.952-7.071 0-1.953 1.953-1.953 5.119 0 7.071l5.47 5.47h-89.544c-18.008 0-34.362-11.322-40.694-28.173-.971-2.584-3.853-3.891-6.439-2.922-2.585.972-3.893 3.854-2.922 6.439 7.79 20.729 27.905 34.655 50.056 34.655h89.543l-5.47 5.47c-1.953 1.953-1.953 5.119 0 7.071.977.976 2.256 1.464 3.536 1.464s2.559-.488 3.536-1.464l14.005-14.005c1.952-1.952 1.952-5.118-.001-7.071z" fill="#63bce7"/><path d="m246.791 85.679-14.005-14.005c-1.953-1.952-5.118-1.952-7.071 0l-14.005 14.005c-1.953 1.953-1.953 5.119 0 7.071s5.118 1.952 7.071 0l5.47-5.47v80.76c0 18.532-11.761 35.044-29.266 41.089-2.61.901-3.996 3.748-3.094 6.358.715 2.07 2.652 3.37 4.726 3.37.542 0 1.092-.089 1.632-.275 21.534-7.436 36.002-27.747 36.002-50.541v-80.76l5.47 5.47c.977.976 2.256 1.464 3.536 1.464s2.559-.488 3.536-1.464c1.951-1.953 1.951-5.119-.002-7.072z" fill="#f46275"/></g><g fill="#321f7a"><path d="m107.418 199.169h41.148c.829 0 1.5-.671 1.5-1.5v-19.899c.987-.378 1.987-.793 2.989-1.24l14.066 14.066c.586.586 1.535.586 2.121 0l29.105-29.105c.586-.585.586-1.536 0-2.121l-14.065-14.066c.459-1.026.87-2.016 1.242-2.99h19.896c.829 0 1.5-.671 1.5-1.5v-41.148c0-.829-.671-1.5-1.5-1.5h-19.899c-.379-.988-.793-1.988-1.24-2.99l14.066-14.066c.281-.281.439-.663.439-1.061s-.158-.779-.439-1.061l-29.105-29.104c-.562-.563-1.559-.563-2.122 0l-14.065 14.08c-1.044-.469-2.034-.883-2.99-1.252v-19.885c0-.829-.671-1.5-1.5-1.5h-41.148c-.829 0-1.5.671-1.5 1.5v19.885c-.956.369-1.945.784-2.99 1.252l-14.065-14.08c-.281-.282-.663-.44-1.061-.44-.398 0-.779.158-1.061.439l-29.104 29.106c-.281.281-.439.663-.439 1.061s.158.779.439 1.061l14.066 14.066c-.446 1.001-.861 2.001-1.24 2.99h-19.883c-.829 0-1.5.671-1.5 1.5v41.148c0 .829.671 1.5 1.5 1.5h19.881c.372.974.783 1.963 1.242 2.99l-14.066 14.065c-.586.585-.586 1.536 0 2.121l29.105 29.105c.586.586 1.535.586 2.121 0l14.066-14.066c1.003.447 2.003.861 2.989 1.24v19.898c.001.829.672 1.501 1.501 1.501zm-4.182-25.795c-.571-.266-1.248-.146-1.693.299l-13.741 13.741-26.984-26.984 13.741-13.741c.446-.445.565-1.122.299-1.693-.768-1.649-1.403-3.183-1.942-4.688-.213-.596-.779-.994-1.412-.994h-19.425v-38.148h19.425c.632 0 1.196-.396 1.411-.99.556-1.537 1.21-3.116 1.943-4.692.266-.571.146-1.248-.299-1.693l-13.741-13.742 26.983-26.982 13.741 13.755c.445.446 1.122.566 1.694.3 1.7-.791 3.235-1.432 4.692-1.959.594-.215.989-.779.989-1.411v-19.425h38.148v19.425c0 .631.396 1.195.989 1.411 1.46.528 2.995 1.169 4.692 1.959.574.266 1.249.146 1.694-.3l13.741-13.755 26.983 26.982-13.741 13.741c-.446.445-.565 1.122-.299 1.693.733 1.577 1.388 3.155 1.943 4.692.215.594.779.99 1.411.99h19.441v38.148h-19.439c-.633 0-1.199.398-1.412.994-.539 1.505-1.174 3.038-1.942 4.688-.266.571-.146 1.248.299 1.693l13.741 13.741-26.984 26.984-13.741-13.741c-.445-.446-1.121-.565-1.693-.299-1.58.735-3.159 1.389-4.692 1.943-.594.215-.99.779-.99 1.411v19.44h-38.148v-19.44c0-.632-.396-1.196-.99-1.411-1.531-.552-3.11-1.206-4.692-1.942z"/><path d="m114.759 154.11v-21.254h5.267l29.913 15.697v-.007c.209.111.444.179.697.179h7.605c.829 0 1.5-.671 1.5-1.5v-16.068c7.321-.752 12.939-6.882 12.939-14.345 0-7.467-5.616-13.594-12.939-14.346v-16.08c0-.829-.671-1.5-1.5-1.5h-7.605c-.253 0-.488.069-.697.179v-.007l-29.937 15.71h-25.083c-.829 0-1.5.671-1.5 1.5v5.763h-8.6c-.829 0-1.5.671-1.5 1.5v14.55c0 .829.671 1.5 1.5 1.5h8.6v5.775c0 .829.671 1.5 1.5 1.5h5.612v21.254c0 .829.671 1.5 1.5 1.5h11.228c.829 0 1.5-.671 1.5-1.5zm54.921-37.298c0 5.808-4.291 10.603-9.939 11.337v-22.675c5.649.733 9.939 5.527 9.939 11.338zm-17.544-28.926h4.605v57.839h-4.605zm-3 56.858-27.264-14.307v-27.262l27.264-14.308zm-62.816-22.163v-11.55h7.1v11.55zm10.099 1.5v-14.55-5.763h22.453v26.088h-5.613-11.228-5.612zm15.34 28.529h-8.228v-19.754h8.228z"/><path d="m88.588 42.6c1.228 1.228 2.86 1.903 4.596 1.903s3.368-.676 4.596-1.904c2.535-2.534 2.535-6.658 0-9.192l-2.909-2.909h85.922c17.387 0 33.177 10.931 39.29 27.201.948 2.521 3.394 4.215 6.086 4.215.78 0 1.548-.14 2.286-.417 3.355-1.261 5.059-5.017 3.798-8.371-8.008-21.31-28.688-35.627-51.46-35.627h-85.922l2.909-2.909c1.228-1.228 1.904-2.86 1.904-4.596s-.676-3.369-1.904-4.597c-2.534-2.533-6.658-2.533-9.192 0l-14.005 14.005c-2.535 2.534-2.535 6.658 0 9.192zm-11.884-21.077 14.005-14.005c1.364-1.364 3.586-1.364 4.95 0 .661.661 1.025 1.54 1.025 2.475s-.364 1.814-1.025 2.475l-5.47 5.47c-.429.429-.558 1.074-.325 1.635.232.561.779.926 1.386.926h89.543c21.529 0 41.081 13.536 48.651 33.683.679 1.807-.239 3.829-2.044 4.508-.398.149-.812.225-1.231.225-1.45 0-2.767-.913-3.277-2.271-6.551-17.433-23.469-29.145-42.099-29.145h-89.543c-.606 0-1.154.365-1.386.926s-.104 1.206.325 1.635l5.47 5.47c.661.661 1.025 1.54 1.025 2.475s-.364 1.814-1.025 2.475c-1.322 1.322-3.628 1.322-4.95 0l-14.005-14.007c-1.365-1.364-1.365-3.585 0-4.95z"/><path d="m22.154 169.883c1.228 1.228 2.86 1.903 4.596 1.903s3.368-.676 4.596-1.904l14.005-14.005c2.535-2.534 2.535-6.658 0-9.193-2.534-2.533-6.658-2.533-9.192 0l-2.909 2.909v-77.138c0-17.893 11.355-33.835 28.256-39.671 1.641-.567 2.963-1.739 3.723-3.3s.866-3.325.299-4.966-1.74-2.963-3.302-3.723c-1.561-.759-3.325-.865-4.964-.299-22.137 7.645-37.012 28.525-37.012 51.959v77.139l-2.909-2.91c-2.534-2.533-6.658-2.533-9.192 0-2.535 2.534-2.535 6.658 0 9.192zm-11.884-21.076c.682-.682 1.579-1.023 2.475-1.023s1.793.341 2.475 1.023l5.47 5.47c.428.429 1.073.559 1.635.325.561-.232.926-.779.926-1.386v-80.76c0-22.155 14.062-41.896 34.993-49.124.882-.305 1.83-.248 2.672.162.841.41 1.473 1.122 1.778 2.005s.248 1.833-.161 2.673c-.409.841-1.121 1.472-2.005 1.777-18.111 6.253-30.278 23.335-30.278 42.506v80.76c0 .607.365 1.154.926 1.386.562.234 1.207.104 1.635-.325l5.47-5.469c1.364-1.364 3.586-1.364 4.95 0 .661.661 1.025 1.54 1.025 2.475s-.364 1.814-1.025 2.475l-14.005 14.005c-1.322 1.322-3.628 1.322-4.95 0l-14.006-14.006c-1.365-1.364-1.365-3.585 0-4.949z"/><path d="m224.654 70.613-14.005 14.005c-2.535 2.534-2.535 6.658 0 9.193 2.534 2.533 6.658 2.533 9.192 0l2.909-2.909v77.139c0 17.893-11.355 33.835-28.256 39.671-1.641.567-2.963 1.739-3.723 3.3s-.866 3.325-.299 4.966c.905 2.62 3.374 4.38 6.144 4.38.721 0 1.435-.12 2.122-.357 22.138-7.645 37.013-28.525 37.013-51.959v-77.14l2.909 2.91c1.228 1.228 2.86 1.903 4.596 1.903s3.368-.676 4.596-1.904c2.535-2.534 2.535-6.658 0-9.192l-14.005-14.006c-2.535-2.533-6.659-2.533-9.193 0zm21.076 16.127c.661.661 1.025 1.54 1.025 2.475s-.364 1.814-1.025 2.475c-1.322 1.322-3.628 1.322-4.95 0l-5.47-5.47c-.428-.429-1.073-.559-1.635-.325-.561.232-.926.779-.926 1.386v80.76c0 22.155-14.062 41.896-34.992 49.123-.371.128-.755.193-1.143.193-1.491 0-2.82-.948-3.308-2.359-.305-.883-.248-1.833.161-2.673.409-.841 1.121-1.472 2.005-1.777 18.109-6.253 30.276-23.335 30.276-42.507v-80.76c0-.606-.365-1.154-.926-1.386-.186-.077-.381-.114-.574-.114-.391 0-.774.152-1.061.439l-5.47 5.469c-1.364 1.364-3.586 1.364-4.95 0-.661-.661-1.025-1.54-1.025-2.475s.364-1.814 1.025-2.475l14.005-14.005c1.364-1.364 3.586-1.364 4.95 0z"/><path d="m27.323 249.504h-18.003c-.829 0-1.5.671-1.5 1.5s.671 1.5 1.5 1.5h18.003c.829 0 1.5-.671 1.5-1.5s-.671-1.5-1.5-1.5z"/><path d="m246.68 249.504h-18.003c-.829 0-1.5.671-1.5 1.5s.671 1.5 1.5 1.5h18.003c.829 0 1.5-.671 1.5-1.5s-.671-1.5-1.5-1.5z"/><path d="m218.479 249.504h-180.958c-.829 0-1.5.671-1.5 1.5s.671 1.5 1.5 1.5h180.959c.829 0 1.5-.671 1.5-1.5s-.672-1.5-1.501-1.5z"/><path d="m246.68 234.004h-78.172l12.909-12.909c2.535-2.534 2.535-6.658 0-9.192l-14.005-14.006c-2.534-2.533-6.658-2.533-9.192 0-1.228 1.228-1.904 2.86-1.904 4.596s.676 3.369 1.904 4.596l2.909 2.909h-85.922c-17.387 0-33.177-10.931-39.29-27.201-1.26-3.352-5.014-5.055-8.372-3.798-3.355 1.261-5.059 5.017-3.798 8.372 8.008 21.31 28.688 35.627 51.46 35.627h85.922l-2.909 2.909c-1.228 1.228-1.904 2.86-1.904 4.596 0 1.26.36 2.464 1.026 3.5h-148.022c-.829 0-1.5.671-1.5 1.5s.671 1.5 1.5 1.5h237.36c.829 0 1.5-.671 1.5-1.5s-.671-1.499-1.5-1.499zm-86.339-5.976 5.47-5.47c.429-.429.558-1.074.325-1.635-.232-.561-.779-.926-1.386-.926h-89.543c-21.529 0-41.081-13.536-48.651-33.683-.679-1.807.239-3.829 2.044-4.507.404-.151.819-.223 1.227-.223 1.418 0 2.756.866 3.282 2.268 6.551 17.433 23.469 29.145 42.099 29.145h89.543c.606 0 1.154-.365 1.386-.926s.104-1.206-.325-1.635l-5.47-5.47c-.661-.661-1.025-1.54-1.025-2.475s.364-1.814 1.025-2.475c1.364-1.364 3.586-1.364 4.95 0l14.005 14.005c1.365 1.365 1.365 3.585 0 4.95l-14.005 14.005c-1.322 1.322-3.628 1.322-4.95 0-.661-.661-1.025-1.54-1.025-2.475s.363-1.811 1.024-2.473z"/></g></g></svg>